<svg width="14" height="17" viewBox="0 0 14 17" fill="none" xmlns="http://www.w3.org/2000/svg">
<path d="M13.0729 5.68229C12.5521 6.00119 12.1206 6.44704 11.8189 6.9781C11.5173 7.50916 11.3553 8.10807 11.3481 8.71879C11.3502 9.40614 11.5538 10.0778 11.9339 10.6506C12.3139 11.2233 12.8535 11.672 13.486 11.9411C13.2367 12.7457 12.8676 13.5082 12.3912 14.2029C11.7096 15.1841 10.9969 16.1652 9.91254 16.1652C8.82814 16.1652 8.54924 15.5352 7.29954 15.5352C6.08084 15.5352 5.64704 16.1859 4.65554 16.1859C3.66404 16.1859 2.97214 15.277 2.17684 14.1616C1.12631 12.599 0.548948 10.7665 0.514038 8.88399C0.514038 5.78559 2.52804 4.14349 4.51094 4.14349C5.56444 4.14349 6.44234 4.83539 7.10334 4.83539C7.73334 4.83539 8.71454 4.10209 9.91254 4.10209C10.5285 4.0862 11.1389 4.22201 11.69 4.49757C12.2412 4.77313 12.7161 5.17998 13.0729 5.68229ZM9.34454 2.79049C9.87264 2.16925 10.1716 1.38562 10.1914 0.570488C10.1923 0.46303 10.1819 0.355776 10.1604 0.250488C9.2533 0.339102 8.41444 0.771463 7.81594 1.45889C7.28275 2.05537 6.97254 2.81808 6.93804 3.61739C6.93844 3.7146 6.94883 3.8115 6.96904 3.90659C7.04055 3.92011 7.11316 3.92704 7.18594 3.92729C7.60401 3.89402 8.01095 3.77609 8.38204 3.58067C8.75312 3.38524 9.08058 3.1164 9.34454 2.79049Z" fill="white"/>
</svg>
