<svg width="14" height="15" viewBox="0 0 14 15" fill="none" xmlns="http://www.w3.org/2000/svg">
<path d="M11.3535 3.02828H10.333C10.2236 2.21726 9.82725 1.47228 9.21579 0.92837C8.60433 0.384462 7.81824 0.0776246 7 0.0634766C6.18176 0.0776246 5.39567 0.384462 4.78421 0.92837C4.17275 1.47228 3.7764 2.21726 3.667 3.02828H2.647C2.08579 3.02865 1.54766 3.2517 1.15075 3.64846C0.753835 4.04522 0.530581 4.58327 0.529999 5.14448V12.86C0.530502 13.4211 0.753603 13.9591 1.15034 14.356C1.54709 14.7528 2.08506 14.976 2.6462 14.9767H11.3532C11.9144 14.9762 12.4526 14.753 12.8494 14.3562C13.2463 13.9593 13.4695 13.4212 13.47 12.86V5.14448C13.4694 4.58335 13.2462 4.04538 12.8494 3.64863C12.4526 3.25189 11.9146 3.02878 11.3535 3.02828ZM7 1.16308C7.52741 1.17454 8.03512 1.36565 8.43918 1.7048C8.84325 2.04395 9.11948 2.51084 9.2222 3.02828H4.7778C4.88052 2.51084 5.15675 2.04395 5.56082 1.7048C5.96488 1.36565 6.47259 1.17454 7 1.16308ZM12.37 12.86C12.3697 13.1296 12.2625 13.388 12.072 13.5787C11.8814 13.7693 11.623 13.8767 11.3534 13.8771H2.6465C2.37694 13.8766 2.11856 13.7693 1.92801 13.5786C1.73746 13.388 1.63029 13.1295 1.63 12.86V5.14448C1.63032 4.87496 1.73752 4.61656 1.9281 4.42598C2.11869 4.2354 2.37708 4.12819 2.6466 4.12788H11.3536C11.6231 4.12825 11.8814 4.23548 12.072 4.42605C12.2625 4.61663 12.3697 4.87499 12.37 5.14448V12.86Z" fill="#DADADA"/>
</svg>
