<svg width="15" height="15" viewBox="0 0 15 15" fill="none" xmlns="http://www.w3.org/2000/svg">
<path d="M14.298 13.2022L10.428 9.3322C11.129 8.4032 11.55 7.2512 11.55 6.0002C11.55 2.9402 9.061 0.450195 6 0.450195C2.94 0.450195 0.449997 2.9402 0.449997 6.0002C0.449997 9.0612 2.94 11.5502 6 11.5502C7.251 11.5502 8.403 11.1292 9.332 10.4282L13.202 14.2982C13.353 14.4492 13.552 14.5262 13.75 14.5262C13.948 14.5262 14.146 14.4502 14.298 14.2982C14.601 13.9952 14.601 13.5052 14.298 13.2022ZM1.55 6.0002C1.55 3.5462 3.547 1.5502 6 1.5502C8.454 1.5502 10.45 3.5472 10.45 6.0002C10.45 8.4532 8.454 10.4502 6 10.4502C3.546 10.4502 1.55 8.4542 1.55 6.0002Z" fill="#DADADA"/>
</svg>
